<svg id="LOGO" xmlns="http://www.w3.org/2000/svg" viewBox="0 0 708.67 708.67"><defs><style>.cls-1{fill:#231815;}</style></defs><title>FontProjectLogo</title><polygon class="cls-1" points="153.48 504.23 157.98 504.23 157.98 479.29 172.22 479.29 172.22 475.1 157.98 475.1 157.98 452.46 175.29 452.46 175.29 448.28 153.48 448.28 153.48 504.23"/><path class="cls-1" d="M2472.54,1836.45c-7.93,0-12.48,5.24-12.48,14.37V1879c0,9.13,4.55,14.37,12.48,14.37s12.64-5.24,12.64-14.37v-28.16C2485.17,1841.69,2480.57,1836.45,2472.54,1836.45Zm8.13,42.77c0,4.54-1.41,9.94-8.13,9.94s-8-5.41-8-9.94v-28.64c0-4.54,1.38-9.94,8-9.94s8.13,5.41,8.13,9.94v28.64Z" transform="translate(-2270.66 -1388.65)"/><polygon class="cls-1" points="254.88 492.64 239.22 448.57 239.12 448.28 233.64 448.28 233.64 504.23 237.83 504.23 237.83 457.3 254.2 503.93 254.3 504.23 259.07 504.23 259.07 448.28 254.88 448.28 254.88 492.64"/><polygon class="cls-1" points="272.94 452.46 284.19 452.46 284.19 504.23 288.69 504.23 288.69 452.46 299.86 452.46 299.86 448.28 272.94 448.28 272.94 452.46"/><path class="cls-1" d="M2626.45,1836.93H2614.6v56h4.5v-22.66h6.4c8.87,0,13.19-4.42,13.19-13.5v-6C2638.7,1841.7,2634.46,1836.93,2626.45,1836.93Zm7.74,20c0,6.45-2.52,9.08-8.68,9.08h-6.4v-24.92h7.35c5.35,0,7.74,2.9,7.74,9.39V1857Z" transform="translate(-2270.66 -1388.65)"/><path class="cls-1" d="M2680.1,1885.83v-8.57c0-6-2.22-9.69-6.78-11.26,4.56-1.62,6.78-5.36,6.78-11.4v-4.8c0-8.54-4.12-12.87-12.24-12.87h-11.93v56h4.51v-24.62h5.3c6.92,0,9.86,2.67,9.86,8.92v8.65c0,2.88.21,5,1.24,6.83l0.13,0.22h4.85l-0.45-.68C2680.25,1890.49,2680.1,1888,2680.1,1885.83Zm-14.29-21.76h-5.38v-23h7.35c5.33,0,7.82,2.86,7.82,9v5.19C2675.59,1862.6,2671.85,1864.07,2665.81,1864.07Z" transform="translate(-2270.66 -1388.65)"/><path class="cls-1" d="M2712.64,1836.45c-7.93,0-12.48,5.24-12.48,14.37V1879c0,9.13,4.55,14.37,12.48,14.37s12.64-5.24,12.64-14.37v-28.16C2725.27,1841.69,2720.67,1836.45,2712.64,1836.45Zm8.13,42.77c0,4.54-1.41,9.94-8.13,9.94s-8-5.41-8-9.94v-28.64c0-4.54,1.38-9.94,8-9.94s8.13,5.41,8.13,9.94v28.64Z" transform="translate(-2270.66 -1388.65)"/><path class="cls-1" d="M2750.8,1879.14c0,6.25-2.21,9.08-7.38,9.47a22.06,22.06,0,0,1-3.16.08l-0.47,0v4.19l0.41,0c0.64,0,1.26.06,1.87,0.06s1.2,0,1.8-.06c7.69-.36,11.43-4.93,11.43-14v-42h-4.5v42.22Z" transform="translate(-2270.66 -1388.65)"/><polygon class="cls-1" points="504.84 504.23 527.44 504.23 527.44 500.04 509.35 500.04 509.35 477.95 524.37 477.95 524.37 473.76 509.35 473.76 509.35 452.46 527.44 452.46 527.44 448.28 504.84 448.28 504.84 504.23"/><path class="cls-1" d="M2827.84,1836.45c-7.83,0-12.32,5.24-12.32,14.37V1879c0,9.13,4.49,14.37,12.32,14.37s12.32-5.24,12.32-14.37v-6.74h-4.35v7c0,4.5-1.37,9.86-7.9,9.86s-7.9-5.36-7.9-9.86v-28.64c0-4.54,1.37-9.94,7.9-9.94s7.9,5.41,7.9,9.94v5.24h4.35v-5C2840.16,1841.69,2835.67,1836.45,2827.84,1836.45Z" transform="translate(-2270.66 -1388.65)"/><polygon class="cls-1" points="583 452.46 594.25 452.46 594.25 504.23 598.76 504.23 598.76 452.46 609.93 452.46 609.93 448.28 583 448.28 583 452.46"/><polygon class="cls-1" points="301.57 270.86 301.57 430.53 322.64 430.53 322.64 322.68 378.43 379.59 434.77 321.79 434.77 430.53 456.51 430.53 456.51 270.86 379.12 350.55 301.57 270.86"/><path class="cls-1" d="M2889.21,1798.52L2874,1781.91a58.94,58.94,0,0,1-44.12,20.37c-31.89,0-58-25.32-58-60.8,0-34.19,25.85-61.91,57.74-61.91a55.8,55.8,0,0,1,40.19,17.55l15.89-15.89a81.47,81.47,0,0,0-137,59.66c0,49.81,35.41,81.55,81.56,81.55C2851.81,1822.43,2873.93,1813.82,2889.21,1798.52Z" transform="translate(-2270.66 -1388.65)"/><polygon class="cls-1" points="284.01 430.84 201.55 350 279.4 275.39 249.32 275.39 175.38 349.24 175.38 275.39 153.65 275.39 153.65 430.84 175.38 430.84 175.38 350.79 252.83 430.84 284.01 430.84"/><path class="cls-1" d="M2883,1534.83c-100-100-248.73-122.16-370.37-66.57l41.37-41.37a6.35,6.35,0,1,0-2.5-2.5L2503,1472.81a326.84,326.84,0,0,0-49,30l102.23-102.23a6.35,6.35,0,1,0-2.5-2.5L2422.85,1529c-0.57.54-1.13,1.11-1.7,1.66l-3-3-8.49,8.49,3,3c-0.55.57-1.11,1.13-1.65,1.7l-131,131a6.35,6.35,0,1,0,2.5,2.5l102.23-102.23a326.83,326.83,0,0,0-30,49l-48.42,48.42a6.35,6.35,0,1,0,2.5,2.5l41.37-41.37c-55.59,121.64-33.41,270.39,66.57,370.37a330,330,0,0,0,466.11,0C3011.46,1872.43,3011.46,1663.34,2883,1534.83Zm-377.82-59.12a327.67,327.67,0,0,1,225.93-23.51l-10.5,10.5a315.3,315.3,0,0,0-70.67-8,310.73,310.73,0,0,0-182.24,58.48Zm-91.64,67.63,1.68-1.68,3,3,8.49-8.49-3-3,1.67-1.67a324.62,324.62,0,0,1,69.37-50.36l-51.94,51.94q-5.08,4.49-10,9.22l-2.61-2.61-8.49,8.49,2.61,2.61q-4.73,4.91-9.22,10l-51.94,51.94A324.62,324.62,0,0,1,2413.5,1543.33Zm-79.29,305.72a327.73,327.73,0,0,1,23.51-225.93l37.48-37.48a310.73,310.73,0,0,0-58.47,182.24,315.3,315.3,0,0,0,8,70.67Zm534.6,137.74c-120.71,120.71-317.11,120.7-437.82,0-116.11-116.11-120.51-302.26-13.23-423.71l9.43-9.43,3,3,8.49-8.49-3-3,9.42-9.42A309.95,309.95,0,0,1,2868.81,1549C2989.51,1669.68,2989.51,1866.09,2868.81,1986.8Z" transform="translate(-2270.66 -1388.65)"/></svg>