<svg id="レイヤー_1" data-name="レイヤー 1" xmlns="http://www.w3.org/2000/svg" xmlns:xlink="http://www.w3.org/1999/xlink" viewBox="0 0 1734.77 1000"><defs><style>.cls-1{fill:url(#スーバーソフトブラックビネット);}.cls-2,.cls-3,.cls-4{fill-rule:evenodd;}.cls-2{fill:url(#スーバーソフトブラックビネット-2);}.cls-3{fill:url(#スーバーソフトブラックビネット-3);}.cls-4{fill:url(#スーバーソフトブラックビネット-4);}</style><radialGradient id="スーバーソフトブラックビネット" cx="166.17" cy="551" r="135.71" gradientUnits="userSpaceOnUse"><stop offset="0.57" stop-color="#1a0b08"/><stop offset="0.8" stop-color="#1a0b08"/><stop offset="1" stop-color="#1a0b08"/></radialGradient><radialGradient id="スーバーソフトブラックビネット-2" cx="403.22" cy="551.22" r="128.97" xlink:href="#スーバーソフトブラックビネット"/><radialGradient id="スーバーソフトブラックビネット-3" cx="835.81" cy="408.92" r="345.03" xlink:href="#スーバーソフトブラックビネット"/><radialGradient id="スーバーソフトブラックビネット-4" cx="1394.98" cy="551.22" r="193.78" xlink:href="#スーバーソフトブラックビネット"/></defs><title>kmclogop</title><rect class="cls-1" x="83.13" y="377.96" width="166.06" height="346.07"/><polygon class="cls-2" points="345.54 378.19 345.54 724.25 459.63 724.25 346.12 543.82 460.9 378.19 345.54 378.19"/><path class="cls-3" d="M1086.49,553.76c0-127,98.88-175.57,98.88-175.57H1085.22V93.6H985.71l-192,277V170.29H701.12L463.43,543.61l55.78,88.74L706.82,357.27V513.82H845.63L986.34,309.73V724.25h221.84S1086.49,680.72,1086.49,553.76Z"/><path class="cls-4" d="M1369.17,378.19s44,24.18,67.19,62.75l-83,54.46a92.8,92.8,0,1,0,.38,99.47L1437,650.73c-34.7,53.69-90,73.52-90,73.52h260.5V378.19H1369.17Z"/></svg>