<svg id="レイヤー_1" data-name="レイヤー 1" xmlns="http://www.w3.org/2000/svg" viewBox="0 0 1000 1000"><defs><style>.cls-1{fill:#333;}</style></defs><title>KMCsans_export</title><path id="path4911-4-0" class="cls-1" d="M649.25,118.48l-50.81,44.75c-12.91-16.46-36.8-36.43-80.68-38.42-60-2.71-96.32,31.2-93.6,70.51,2.2,31.84,29.95,47.67,84.32,68,51,19.08,78.69,33.69,97.72,46.37C662,346.85,673.12,407.82,653,453.82c-12.78,29.23-51.68,58.62-90.55,60.06-28.43,1.06-44.5-28.42-32-31.56,42.35-10.68,65.35-45.6,63-75.59-3-39.16-29.87-53.65-106-83.14-41.08-15.92-80.73-31.15-103.67-52.57-30.43-28.42-39.86-76-21.4-120.86C384.63,96.24,451.33,63.36,520.34,66c69.59,2.67,109.24,31.1,128.91,52.47h0Z"/><path id="path4911-4-0-2" data-name="path4911-4-0" class="cls-1" d="M483.55,320.52c-44.2,7.85-66.13,43-63.55,79.1,1.63,22.88,21.13,48.37,75.5,68.71,51,19.08,86.83,30.16,106.38,42,53.41,32.45,73.41,80.88,51.14,144.11-17.92,50.86-75.94,88.91-173.32,84.64-69.19-3-125-39.77-142-67.27l54-47.94c11.9,24.17,43.93,51.59,93.74,53.57,71.35,2.84,106.67-31.26,103.67-70.08-3-39.16-38.53-49.32-114.62-78.81-41.08-15.92-71.94-33.39-93.91-55.79-28.68-29.24-36.49-82.83-16.83-122.42,13.19-32,46.36-60.45,89.64-60.24C479.69,290.25,491.66,319.08,483.55,320.52Z"/></svg>