<svg id="レイヤー_1" data-name="レイヤー 1" xmlns="http://www.w3.org/2000/svg" viewBox="0 0 1000 1000"><defs><style>.cls-1{fill:#333;}</style></defs><title>KMCsans_export(fig_pun)</title><rect class="cls-1" x="363.38" y="451.91" width="34.7" height="74.35"/><path class="cls-1" d="M509.25,93.6c-76.64,0-115.62,36.71-117.59,103.64-1.61,54.34-.15,137.59-0.15,191.56,0,45.15-31.9,59.79-59.37,64.21-7.16,1.15-12.46,1.45-12.46,1.45v35.93s54.07,2,72.85,0c48-5.12,87.31-35.51,87.31-103.57,0-62.56-2.44-107.71,0-179.19,0.78-22.91,12-38.33,43.73-39.45,24.53-.86,70.48-0.24,70.48-0.24V93.6h-84.8Z"/><path class="cls-1" d="M509.25,886.77c-76.64,0-115.62-36.71-117.59-103.64-1.61-54.34-.15-137.59-0.15-191.56,0-45.15-31.9-59.79-59.37-64.21-7.16-1.15-12.46-1.45-12.46-1.45V490s54.07-2,72.85,0c48,5.12,87.31,35.51,87.31,103.57,0,62.56-2.44,107.71,0,179.19,0.78,22.91,12,38.33,43.73,39.45,24.53,0.86,70.48.24,70.48,0.24v74.35h-84.8Z"/></svg>