<svg id="レイヤー_1" data-name="レイヤー 1" xmlns="http://www.w3.org/2000/svg" viewBox="0 0 1000 1000"><defs><style>.cls-1{fill:#333;}</style></defs><title>KMCsans_export(fig_pun)</title><rect class="cls-1" x="219.15" y="649.9" width="393.22" height="74.35"/><path class="cls-1" d="M397.15,79c-81.17,4.12-137.76,43-178,102.76l58.73,57c34.73-54.18,70.67-82.62,123.44-84.46C481,151.43,528,209.92,524.23,284.35c-2.86,56.31-35.23,98-70.21,136.75-55.6,61.57-234.87,228.8-234.87,228.8v74.35L333,649.9S464.52,524,509.45,479.15c39.43-39.32,101-102.43,105.58-194.27C621.76,149.68,515.25,73,397.15,79Z"/><rect class="cls-1" x="260.82" y="624.2" width="73.86" height="74.35"/></svg>