<svg id="レイヤー_1" data-name="レイヤー 1" xmlns="http://www.w3.org/2000/svg" viewBox="0 0 1000 1000"><defs><style>.cls-1{fill:#333;}</style></defs><title>KMCsans_export</title><g id="g4789-9-0"><g id="g4705-5-1"><path id="rect5542-9-0-3-8-0" class="cls-1" d="M746.65,42H658.44V394.84c37.8,57.49,34.65,163,0,215.8V724.26h88.21V42Z"/><path id="path4485-9-1-4-8-6-7" class="cls-1" d="M491.84,263.39c191.81,0,221.52,208.34,194.35,235.51,27.57,27.57-5.63,234.58-194.35,234.58-112.56,0-223.57-90.92-223.55-234.58C268.28,357.67,376.63,263.39,491.84,263.39ZM505.22,338c-84.62,0-153.21,72-153.21,160.9s68.59,160.26,153.21,160.27,153.22-64.72,153.22-160.27C658.44,405.6,589.84,338,505.22,338Z"/></g><rect id="rect4772-0-2" class="cls-1" x="636.97" y="345.04" width="30.38" height="23.74"/><rect id="rect4772-6-0-8" class="cls-1" x="650.65" y="627.05" width="30.38" height="23.74"/></g></svg>