<svg id="レイヤー_1" data-name="レイヤー 1" xmlns="http://www.w3.org/2000/svg" viewBox="0 0 1000 1000"><defs><style>.cls-1{fill:#333;}</style></defs><title>KMCsans_export</title><g id="g4705"><path id="rect5542-9-0-3" class="cls-1" d="M294.87,42h88.21V394.84c-37.8,57.49-34.65,163,0,215.8V724.26H294.87V42Z"/><path id="path4485-9-1-4-8" class="cls-1" d="M549.69,263.39c-191.81,0-223.47,208.34-196.3,235.51-27.57,27.57,7.58,234.58,196.3,234.58,112.56,0,223.57-91.71,223.55-234.58C773.24,355.3,664.89,263.39,549.69,263.39ZM536.3,338c84.62,0,153.21,72,153.21,160.9S620.91,659.19,536.3,659.19,383.08,594.47,383.08,498.93C383.08,405.6,451.68,338,536.3,338Z"/></g><rect id="rect4772" class="cls-1" x="374.17" y="344.35" width="30.38" height="23.74"/><rect id="rect4772-6" class="cls-1" x="360.49" y="627.8" width="30.38" height="23.74"/></svg>