<svg id="レイヤー_1" data-name="レイヤー 1" xmlns="http://www.w3.org/2000/svg" viewBox="0 0 1000 1000"><defs><style>.cls-1{fill:#333;}</style></defs><title>KMCsans_export</title><path class="cls-1" d="M671.85,722.91V472.74c0-131.74-80.13-212.27-201.44-212.21-80.35,0-135.52,35.76-164.64,71.13l52.16,49.8c22.75-29.9,58.86-49.92,103.87-48.72,77.82,2.07,121.84,46.36,121.84,140l-1.11,250.2h89.32Z"/><path id="path4896" class="cls-1" d="M584.23,460.27C513.91,448.7,475.35,441,414.89,445.62,316.08,453.2,263.18,514.77,259.69,591c-3.08,67.08,40.6,114.76,94.72,135.26,67.06,25.41,195.35,21.77,228.43-72.68,12.11-34.59,2.58-146.14,0-106-5.75,89.64-84.47,130.22-164.65,120-51.73-6.62-76.72-41.73-75.9-77.39,1-42.08,31.95-77.59,95.75-80.37,45.92-2,86.45,2.63,144.8,15.34C593.28,509.12,599.79,462.83,584.23,460.27Z"/><rect class="cls-1" x="565.61" y="633.15" width="55.78" height="27.89"/></svg>