<svg id="レイヤー_1" data-name="レイヤー 1" xmlns="http://www.w3.org/2000/svg" viewBox="0 0 1000 1000"><defs><style>.cls-1{fill:#333;}</style></defs><title>KMCsans_export(fig_pun)</title><path class="cls-1" d="M531.67,372.79c42.79-24.25,72.41-69.84,72.41-123.62C604.09,153.94,526.67,80,425.87,80,324.5,80,247.75,154.16,247.75,249.17c0,52.46,31.71,99.37,72.34,123.54-61.87,27.65-105.7,95.75-105.7,164.77,0,113.18,90.74,201.1,211.48,201.1,119.53,0,211.71-87.19,211.69-201.1C637.56,468.4,593.41,400.36,531.67,372.79ZM425.89,151c54,0,97.81,44,97.8,98.16a97.81,97.81,0,0,1-195.61,0C328.08,194.94,371.87,151,425.89,151Zm0,513.24A126.59,126.59,0,0,1,299.11,537.49c0-70.28,56.77-127.25,126.78-127.25s126.77,57,126.77,127.25A126.59,126.59,0,0,1,425.89,664.23Z"/><rect class="cls-1" x="319.19" y="342.92" width="42.63" height="55.24"/><rect class="cls-1" x="490.09" y="342.92" width="42.63" height="55.24"/></svg>