<svg id="レイヤー_1" data-name="レイヤー 1" xmlns="http://www.w3.org/2000/svg" viewBox="0 0 1000 1000"><defs><style>.cls-1{fill:#333;}</style></defs><title>KMCsans_export</title><path id="rect5542-9-0-33" class="cls-1" d="M468.19,42.21h40.3V776h-40.3V42.21Z"/><path id="path4911-4-0" class="cls-1" d="M667.81,152.32l-60,60c-15.68-22.77-42.32-54.54-99.76-57.23-72.87-3.41-117.24,49.49-113.54,108.57,2,31.65,25.67,66.92,91.73,95.07,61.94,26.39,95,41.73,118.73,58.16,64.9,44.89,87.89,120.17,62.13,199.38-22.75,70-92.28,123-210.59,117.1-84.07-4.2-151.88-55-172.54-93.08l63.2-63.69c11.67,32.06,55.85,74.73,116.37,77.47,86.69,3.92,129.61-49.23,126-103-3.68-54.18-36.29-74.23-128.75-115-49.92-22-88.74-41.74-115.45-72.74-34.85-40.46-48.43-105.17-26-167.22,27-74.59,108-120.08,191.86-116.41,84.55,3.7,132.73,43,156.63,72.6h0Z"/></svg>