<svg id="レイヤー_1" data-name="レイヤー 1" xmlns="http://www.w3.org/2000/svg" viewBox="0 0 1000 1000"><defs><style>.cls-1{fill:#333;}</style></defs><title>KMCsans_export</title><g id="g4705-5-9"><path id="rect5542-9-0-3-8-9" class="cls-1" d="M596.72,275.6V387.17c34.65,52.77,37.8,158.3,0,215.79V713c0,143-73.25,183.91-153.63,183.72-55.09-.13-97.78-23.57-126.85-64.91l-58.52,58.37c35,47.75,104.48,83.68,183.7,83.68,182.58,0,243.51-118.16,243.51-288.26v-410H596.72Z"/><path id="path4485-9-1-4-8-6-9" class="cls-1" d="M430.12,734.41c191.81,0,223.47-208.34,196.3-235.51,27.57-27.57-7.58-234.58-196.3-234.58-112.56,0-223.57,94.07-223.55,234.58C206.56,638.56,314.92,734.41,430.12,734.41Zm13.39-74.63c-84.62,0-153.21-72-153.21-160.9s68.59-160.26,153.21-160.27,153.21,64.72,153.21,160.27C596.72,592.2,528.12,659.78,443.51,659.77Z"/></g><rect id="rect4772-0-0" class="cls-1" x="575.25" y="629.85" width="30.38" height="23.74"/><rect id="rect4772-6-0-85" class="cls-1" x="588.93" y="345.91" width="30.38" height="23.74"/></svg>