<svg id="レイヤー_1" data-name="レイヤー 1" xmlns="http://www.w3.org/2000/svg" viewBox="0 0 1000 1000"><defs><style>.cls-1{fill:#333;}</style></defs><title>KMCsans_export</title><g id="g4705-5-1-6"><path id="rect5542-9-0-3-8-0-4" class="cls-1" d="M278.09,957.79h88.19V602.41c-37.79-57.48-34.64-163,0-215.73V275.74H278.09V957.79Z"/><path id="path4485-9-1-4-8-6-7-6" class="cls-1" d="M532.83,733.82c-191.75,0-223.4-208.27-196.24-235.44C309,470.82,344.17,263.87,532.83,263.87c112.52,0,223.51,92.47,223.49,234.51C756.32,638.79,648,733.82,532.83,733.82Zm-13.38-74.61c84.59,0,153.16-72,153.16-160.85S604,338.14,519.45,338.14s-153.17,64.7-153.17,160.22C366.28,591.65,434.86,659.21,519.45,659.21Z"/></g><rect id="rect4772-0-2-2" class="cls-1" x="351.09" y="628.94" width="30.37" height="23.73"/><rect id="rect4772-6-0-8-9" class="cls-1" x="351.09" y="346.4" width="30.37" height="23.73"/></svg>