<svg id="レイヤー_1" data-name="レイヤー 1" xmlns="http://www.w3.org/2000/svg" viewBox="0 0 1000 1000"><defs><style>.cls-1{fill:#333;}</style></defs><title>KMCsans_export</title><path class="cls-1" d="M487.74,393.9c-50.92-17.62-93-77.07-96.25-139.18C386.06,150.13,475.87,72.14,596.25,79.31c67.58,4,125.5,34.86,155.24,77.67l-55.73,54.67c-23.72-37.91-59.78-59-103.44-61.37-65.43-3.52-117.23,44.46-114.09,104.42,3.09,58.94,47.13,102.74,108.86,107.41,25,1.89,243.1,1,253.86.79v67.3c-31.93,0-225.2-1-253.86.08-79.9,3.15-132,48.92-132,118.78,0,70.13,54.18,100.6,139.25,100.6,13.65,0,78.62.24,106.08,0.24l70.55,74.35H585c-158.11,0-219-73.46-219-170.24C366,468.81,418,418,487.74,393.9Z"/><path id="rect5542-9-0-5-1" class="cls-1" d="M689.79,292.87H778V724.25H689.79V292.87Z"/></svg>