<svg id="レイヤー_1" data-name="レイヤー 1" xmlns="http://www.w3.org/2000/svg" viewBox="0 0 1000 1000"><defs><style>.cls-1{fill:#333;}</style></defs><title>KMCsans_export(fig_pun)</title><path class="cls-1" d="M357.86,81.25c-84.53,0-150.48,66-150.49,150.49,0,84.71,66.13,150.51,150.49,150.51,84,0,150.53-65.26,150.51-150.51C508.37,147,442,81.25,357.86,81.25Zm0,230.45c-42.23,0-76.47-35.64-76.47-80s34.24-80.31,76.47-80.31,76.47,36,76.47,80.31S400.09,311.69,357.86,311.7Z"/><path class="cls-1" d="M720.94,435.38c-84.53,0-150.48,66-150.49,150.49,0,84.71,66.13,150.51,150.49,150.51,84,0,150.53-65.26,150.51-150.51C871.46,501.15,805.13,435.38,720.94,435.38Zm0,230.45c-42.23,0-76.47-35.64-76.47-80s34.24-80.31,76.47-80.31,76.47,36,76.47,80.31S763.17,665.83,720.94,665.83Z"/><path id="rect5542-9-0-5-1" class="cls-1" d="M662,93.6h87.68L416.82,724.26H329.14Z"/></svg>