<svg id="レイヤー_1" data-name="レイヤー 1" xmlns="http://www.w3.org/2000/svg" viewBox="0 0 1000 1000"><defs><style>.cls-1{fill:#333;}</style></defs><title>KMCsans_export</title><path id="path4485-9-1-8" class="cls-1" d="M447.91,378.31v55c90.24-7.38,145.23,33.18,145.23,109.8,0,64.2-46.42,112.38-145.23,109v72.08c137,8,228.94-59.88,228.94-181.13,0-116.38-100.1-189.91-228.94-164.82h0Z"/><path id="rect5542-9-9" class="cls-1" d="M461,76.47c-81.72,0-183.29,51.46-183.29,202.1V724.25h88.19V275.74C365.91,186.87,415.25,154,461,154c57.25,0,101.36,41.56,101.36,108.58,0,37.18-25,99.32-114.84,96.51l1,52c99,17.36,197.52-37.11,197.52-149C646.08,135.21,555.54,76.47,461,76.47Z"/></svg>