<svg id="レイヤー_1" data-name="レイヤー 1" xmlns="http://www.w3.org/2000/svg" viewBox="0 0 1000 1000"><defs><style>.cls-1{fill:#333;}</style></defs><title>KMCsans_export(fig_pun)</title><path class="cls-1" d="M476.47,79.63c-117,0-209.71,90.93-209.71,209.71,0,173.16,172,223.81,255.33,188.13L375,724.26h94.21c56.76-96.49,153.15-258.67,189-328.85,16.22-31.76,27.89-67.06,27.89-106.06C686.14,171.31,594,79.64,476.47,79.63Zm0,343.3c-70.26,0-127.21-59.81-127.21-133.59s57-133.07,127.21-133.07,127.21,59.29,127.22,133.07S546.7,422.94,476.44,422.94Z"/><rect class="cls-1" x="513.77" y="437.07" width="42.63" height="45.88" transform="translate(511.78 1165.26) rotate(-128.79)"/></svg>