<svg id="レイヤー_1" data-name="レイヤー 1" xmlns="http://www.w3.org/2000/svg" viewBox="0 0 1000 1000"><defs><style>.cls-1{fill:#333;}</style></defs><title>KMCsans_export(fig_pun)</title><path class="cls-1" d="M552.59,393.9c52.64-18.72,94.29-77.07,97.51-139.18,5.43-104.59-84.38-182.58-204.76-175.41-67.58,4-125.5,34.86-155.24,77.67l55.73,54.67c23.72-37.91,59.78-59,103.44-61.37,65.43-3.52,117.23,44.46,114.09,104.42-3.09,58.94-45.8,103.52-110.12,109.1-10.18.88-38.07,1-48.82,0.79v62.65c12-.23,36.54-0.34,48.83.71,72.35,6.16,129.51,51.29,132,121.11,2.72,75-60.81,119-139.25,114.46-64.75-3.76-100.33-30.83-124.84-71.86l-59.94,58.8c38.45,48.31,99.7,85.52,184.2,87.41,156.92,3.5,232.77-82.12,228.88-188.82C671.25,463.92,622.3,418,552.59,393.9Z"/></svg>