<svg id="レイヤー_1" data-name="レイヤー 1" xmlns="http://www.w3.org/2000/svg" viewBox="0 0 1000 1000"><defs><style>.cls-1{fill:#333;}</style></defs><title>KMCsans_export(fig_pun)</title><path id="path4911-4-0" class="cls-1" d="M682.23,143l-62,54.64c-15.76-20.09-44.93-44.49-98.51-46.91-73.21-3.31-117.61,38.09-114.29,86.09,2.69,38.87,36.57,58.21,103,83,62.24,23.29,96.07,41.14,119.32,56.61,68.11,45.36,81.71,119.79,57.15,176-15.61,35.69-63.1,71.57-110.56,73.33-34.72,1.29-54.33-34.7-39.09-38.54,51.71-13,79.79-55.67,77-92.29-3.7-47.82-36.47-65.51-129.38-101.51-50.16-19.44-98.58-38-126.58-64.19C321,294.59,309.5,236.47,332,181.72c27.09-65.83,108.53-106,192.8-102.74,85,3.26,133.38,38,157.4,64.07h0Z"/><path id="path4911-4-0-2" data-name="path4911-4-0" class="cls-1" d="M479.91,389.73c-54,9.58-80.74,52.53-77.6,96.59,2,27.93,25.8,59.05,92.18,83.9,62.24,23.29,106,36.83,129.89,51.33,65.22,39.62,89.64,98.76,62.44,176-21.88,62.1-92.73,108.56-211.62,103.34-84.48-3.71-152.62-48.55-173.38-82.14l66-58.54c14.54,29.51,53.64,63,114.45,65.41C569.38,829,612.52,787.41,608.85,740c-3.7-47.82-47-60.22-140-96.23-50.16-19.44-87.84-40.76-114.67-68.12-35-35.71-44.55-101.13-20.55-149.47,16.1-39.12,56.6-73.81,109.46-73.56C475.2,352.78,489.82,388,479.91,389.73Z"/></svg>