<svg id="レイヤー_1" data-name="レイヤー 1" xmlns="http://www.w3.org/2000/svg" viewBox="0 0 1000 1000"><defs><style>.cls-1{fill:#333;}</style></defs><title>KMCsans_export</title><path id="rect5564-7-8-0-0-2-0-0-1-3" class="cls-1" d="M464.54,263c-125.62,0-227.81,93.83-227.81,232,0,150.91,98.51,241.82,236.9,241.82,80.08,0,134.94-30.39,182.75-82.21-12.37-12.37-46.1-45.7-56-55.5-30.56,37.5-67.71,62.8-126.75,62.8-77,0-165.75-56.91-153.22-166.88-6.17-107.86,67.29-159.74,143.91-159.74,91.92,0,131.62,82.31,132.11,117.86H287.3v67.68H682C695.95,406.2,627.75,263,464.54,263h0Z"/></svg>