<svg id="レイヤー_1" data-name="レイヤー 1" xmlns="http://www.w3.org/2000/svg" viewBox="0 0 1000 1000"><defs><style>.cls-1{fill:#333;}</style></defs><title>KMCsans_export</title><path class="cls-1" d="M349.63,81.44c-84.52,0-150.48,66-150.49,150.49,0,84.71,66.13,150.51,150.49,150.51,84,0,150.52-65.26,150.51-150.51C500.14,147.22,433.82,81.44,349.63,81.44Zm0,230.45c-42.23,0-76.47-35.64-76.47-80s34.24-80.31,76.47-80.31,76.47,36,76.47,80.31S391.86,311.89,349.63,311.89Z"/><path class="cls-1" d="M712.72,435.57c-84.52,0-150.48,66-150.49,150.49,0,84.71,66.13,150.51,150.49,150.51,84,0,150.52-65.26,150.51-150.51C863.23,501.35,796.9,435.57,712.72,435.57Zm0,230.45c-42.23,0-76.47-35.64-76.47-80s34.24-80.31,76.47-80.31,76.47,36,76.47,80.31S754.95,666,712.72,666Z"/><path id="rect5542-9-0-5-1" class="cls-1" d="M653.78,93.79h87.68L408.59,724.45H320.91Z"/></svg>