<svg id="レイヤー_1" data-name="レイヤー 1" xmlns="http://www.w3.org/2000/svg" viewBox="0 0 1000 1000"><defs><style>.cls-1{fill:#333;}</style></defs><title>KMCsans_export</title><path class="cls-1" d="M446.28,79c-81.17,4.12-137.77,43-178,102.76l58.73,57c34.73-54.18,70.67-82.62,123.44-84.47,79.7-2.79,126.85,48.3,122.91,116-2.57,44.35-30.59,70.71-77,104.26-50.87,36.78-70,69.81-73.45,120.2-0.9,13.22-.64,24-0.64,24h88.18s-0.08-5.26.41-14.29c2.45-44.71,29.23-70.6,64.11-96.13,48.89-35.79,84.57-69.7,89.17-137.53C673,140.53,564.38,73,446.28,79Z"/><circle id="path4962-8" class="cls-1" cx="466.37" cy="670.39" r="53.86"/></svg>