<svg id="レイヤー_1" data-name="レイヤー 1" xmlns="http://www.w3.org/2000/svg" viewBox="0 0 1000 1000"><defs><style>.cls-1{fill:#333;}</style></defs><title>KMCsans_export(fig_pun)</title><rect class="cls-1" x="581.81" y="451.91" width="34.7" height="74.35" transform="translate(1198.33 978.18) rotate(180)"/><path class="cls-1" d="M470.65,93.6c76.64,0,115.62,36.71,117.59,103.64,1.61,54.34.15,137.59,0.15,191.56,0,45.15,31.9,59.79,59.37,64.21,7.16,1.15,12.46,1.45,12.46,1.45v35.93s-54.07,2-72.85,0c-48-5.12-87.31-35.51-87.31-103.57,0-62.56,2.44-107.71,0-179.19-0.78-22.91-12-38.33-43.73-39.45-24.53-.86-70.48-0.24-70.48-0.24V93.6h84.8Z"/><path class="cls-1" d="M470.65,886.77c76.64,0,115.62-36.71,117.59-103.64,1.61-54.34.15-137.59,0.15-191.56,0-45.15,31.9-59.79,59.37-64.21,7.16-1.15,12.46-1.45,12.46-1.45V490s-54.07-2-72.85,0c-48,5.12-87.31,35.51-87.31,103.57,0,62.56,2.44,107.71,0,179.19-0.78,22.91-12,38.33-43.73,39.45-24.53.86-70.48,0.24-70.48,0.24v74.35h84.8Z"/></svg>