<svg id="レイヤー_1" data-name="レイヤー 1" xmlns="http://www.w3.org/2000/svg" viewBox="0 0 1000 1000"><defs><style>.cls-1{fill:#333;}</style></defs><title>KMCsans_export(fig_pun)</title><path class="cls-1" d="M819.56,594.55c-40.2,38.91-88,60.76-144.06,60.85-93.62,0-159.71-53.07-188.73-137.94H679.41l33.22-73H471.76c-1-11.07-1.53-22.43-1.53-34.11a374.94,374.94,0,0,1,2-38.91H738.89l33.22-73H488.5c29.65-82.66,94.32-137.62,185.88-137.63,53.1,0.1,92.87,19.64,131.12,55l41.32-80.34c-49.93-36.3-104.32-56.14-170-56.25-144.69,0-249.32,86.7-285.88,219.22H341.58l-33.22,73h69.76q-1.46,17.9-1.49,36.53t1.29,36.49h-46l-33.22,73H389.4C423.95,655.06,527,736.68,676.8,736.67c69.16-.05,130.79-22,184.08-61.79Z"/></svg>