<svg id="レイヤー_1" data-name="レイヤー 1" xmlns="http://www.w3.org/2000/svg" viewBox="0 0 1000 1000"><defs><style>.cls-1{fill:#333;}</style></defs><title>KMCsans_export</title><path class="cls-1" d="M551.21,534.53c15.46,28.63,43.93,43.16,81.37,43.16,55.42,0,103.68-27.89,127.44-68.51,20.41-34.89,29.66-61.65,29.66-117.8C789.68,212.77,662.71,78,473.34,78c-184.07,0-331,142.73-331,331.12,0,204.48,143.81,331.12,348.19,331.12,102,0,194.95-32.9,253.89-87.73l-51.28-51.28C647.36,647.22,566,676,490.5,676,330.61,676,218.38,566,218.38,409.12c0-144.83,114.15-267.06,255-267.06,151.5,0,247.42,117,247.42,249.32,0,37.52-8.57,61.18-18.29,81.27-13.54,28-38.62,45.47-60.3,45.47-19.06,0-39.16-11.44-33.74-65.23C613.51,402.43,632.88,242,632.88,242h-70L556,302.94h-1.85c-15.21-33.13-45.16-57.43-90.09-57.43-80.66,0-157.05,62.72-165.8,165.65-8.61,101.38,50.31,165,123.57,165,60.74,0,98.95-27.21,118.66-74.29h1.93S541.46,516.48,551.21,534.53Zm-109-16.42c-52.24,0-83.71-50.75-77.15-106.94C372,351.9,413.85,303.81,466.6,303.81c52.24,0,84.18,45.09,77.11,107.37C536.47,474.93,494.5,518.12,442.26,518.11Z"/></svg>