<svg id="レイヤー_1" data-name="レイヤー 1" xmlns="http://www.w3.org/2000/svg" viewBox="0 0 1000 1000"><defs><style>.cls-1{fill:#333;}</style></defs><title>KMCsans_export(fig_pun)</title><path class="cls-1" d="M418.62,330.47c-12.84,1.79-22.06,3.9-31.2,8.09l53-170.62h218V93.6H376.07L284.59,388.72l60.91,52.2c27.08-27.86,57.61-40.31,95.8-40.31,88.53,0,133.46,60.89,133.46,131.33,0,74.92-52.64,133.56-138.51,130.68-42.27-1.42-80.4-21.73-103.32-52.05l-61,60.27c39.35,41.6,100.4,69.59,157.66,69.63C588,745,661.76,646.51,661.76,531.92,661.76,403.62,556.72,311.24,418.62,330.47Z"/><rect class="cls-1" x="352.77" y="333.35" width="42.63" height="45.88" transform="translate(260.46 -147.67) rotate(33.69)"/></svg>