<svg id="レイヤー_1" data-name="レイヤー 1" xmlns="http://www.w3.org/2000/svg" viewBox="0 0 1000 1000"><defs><style>.cls-1{fill:#333;}</style></defs><title>KMCsans_export</title><path id="path4911-4-0" class="cls-1" d="M655.57,316.78L596.83,369.5c-12.21-18.29-39-38.94-75.46-41.3-56.14-3.63-82,29.89-82.09,66.3,0,23.47,13.62,46.53,69.57,66.84,52.46,19,77.73,30.5,98.46,43.93C661,540.05,679.37,595.62,658,653.92c-18.89,51.5-77.38,90.83-177.37,87.14-73.74-1.8-124.77-32.63-147.9-69.52L393.39,617c12.26,22.58,39.86,50.76,89,53.4,68.77,3.7,96.15-30.24,96-64.24-0.18-33.14-21.74-49.43-100.05-78.87-42.28-15.9-73.13-32.63-95.84-55.24-29.64-29.51-39-79-20.39-124.67,22.42-54.91,81.77-89.95,161.55-86.54,71.43,3.05,111.58,34.37,131.91,55.95h0Z"/></svg>