<svg id="レイヤー_1" data-name="レイヤー 1" xmlns="http://www.w3.org/2000/svg" viewBox="0 0 1000 1000"><defs><style>.cls-1{fill:#333;}</style></defs><title>KMCsans_export(fig_pun)</title><path class="cls-1" d="M159.45,81.25C74.93,81.25,9,147.21,9,231.74c0,84.71,66.13,150.51,150.49,150.51,84,0,150.52-65.26,150.51-150.51C310,147,243.64,81.25,159.45,81.25Zm0,230.45c-42.23,0-76.47-35.64-76.47-80s34.24-80.31,76.47-80.31,76.47,36,76.47,80.31S201.68,311.7,159.45,311.7Z"/><path class="cls-1" d="M502.54,435.38c-84.52,0-150.48,66-150.49,150.49,0,84.71,66.13,150.51,150.49,150.51,84,0,150.52-65.26,150.51-150.51C653.05,501.16,586.72,435.38,502.54,435.38Zm0,230.45c-42.23,0-76.47-35.64-76.47-80s34.24-80.31,76.47-80.31,76.47,36,76.47,80.31S544.77,665.83,502.54,665.83Z"/><path class="cls-1" d="M840.52,435.38C756,435.38,690,501.34,690,585.87c0,84.71,66.13,150.51,150.49,150.51,84,0,150.52-65.26,150.51-150.51C991,501.16,924.71,435.38,840.52,435.38Zm0,230.45c-42.23,0-76.47-35.64-76.47-80s34.24-80.31,76.47-80.31,76.47,36,76.47,80.31S882.75,665.83,840.52,665.83Z"/><path id="rect5542-9-0-5-1" class="cls-1" d="M453.6,93.6h87.68L208.42,724.26H120.73Z"/></svg>