<svg id="レイヤー_1" data-name="レイヤー 1" xmlns="http://www.w3.org/2000/svg" viewBox="0 0 1000 1000"><defs><style>.cls-1{fill:#333;}</style></defs><title>KMCsans_export(fig_pun)</title><path class="cls-1" d="M690,500c0-41.15-11.8-78.92-32.22-110.29L724,323.45l-57.28-57.28-66.25,66.25C569,312,531.18,300.19,490.15,300.19S411.23,312,379.82,332.38l-66.2-66.2-57.28,57.28,66.21,66.21c-20.42,31.4-32.19,69.2-32.19,110.32s11.78,79,32.19,110.36l-66.21,66.21,57.28,57.28,66.21-66.21c31.43,20.43,69.24,32.19,110.32,32.2S569,688.08,600.52,667.63l66.19,66.19L724,676.55l-66.15-66.15C678.2,579.07,690,541.3,690,500ZM490.14,626.53c-66.84,0-121-56.4-121-126.59s54.19-127.1,121-127.1,121,56.9,121,127.1S557,626.53,490.14,626.53Z"/></svg>